<?xml version="1.0" encoding="UTF-8"?><svg id="svg1925" xmlns="http://www.w3.org/2000/svg" viewBox="0 0 500 245.501"><defs><style>.cls-1{fill:#00577a;}.cls-2{fill:#bdcf00;}</style></defs><path id="path1435" class="cls-1" d="m77.867,60.276l1.787-10.053h-43.361v.015c-4.549,0-8.875,3.635-9.769,8.165l-16.735,94.906h.021c-.853,4.59,2.153,8.327,6.763,8.347h47.321l1.767-10.033H25.001l7.515-42.609h33.044l1.726-9.871h-33.044l6.865-38.872,36.76.005Z"/><path id="path1437" class="cls-1" d="m99.232,163.306c-19.111,0-30.18-17.162-25.224-45.351,5.057-28.677,22.076-45.189,41.513-45.189,10.683,0,15.923,3.412,18.258,5.829l-4.854,8.266c-2.254-1.95-5.748-4.204-12.226-4.204-15.882,0-24.574,14.399-28.169,34.811-3.696,20.898,1.219,35.318,15.313,35.318,5.991,0,10.398-1.95,14.034-4.204l1.99,8.896c-3.94,3.087-10.906,5.829-20.634,5.829"/><path id="path1439" class="cls-1" d="m173.728,81.845c-16.674,0-23.214,18.624-26.341,36.273-3.087,17.649-2.64,35.318,13.709,35.318,16.694,0,22.909-17.832,25.976-35.318,3.107-17.486,3.331-36.273-13.343-36.273m-14.359,81.461c-23.823,0-30.728-19.599-26.22-45.189,4.59-26.077,18.522-45.351,42.02-45.351,23.965,0,30.769,19.274,26.159,45.351-4.509,25.59-18.319,45.189-41.959,45.189"/><path id="path1441" class="cls-1" d="m333.523,112.126c-22.503,2.742-36.456,7.433-39.563,25.102-2.234,12.632,4.61,17.811,17.588,17.811,5.484,0,11.028-.955,14.928-2.904l7.047-40.01Zm-24.575,51.18c-22.665,0-31.459-9.87-28.657-25.752,4.082-23.173,26.971-29.957,54.531-32.719l.934-5.341c2.376-13.445-5.037-17.324-16.227-17.324-8.408,0-16.735,3.067-22.016,5.504l-1.929-8.429c5.504-2.762,15.882-6.479,27.865-6.479,16.207,0,29.246,6.966,25.468,28.332l-9.891,56.054c-7.291,3.737-17.933,6.154-30.078,6.154"/><path id="path1443" class="cls-1" d="m399.143,161.682l11.048-62.675c1.442-8.104-.406-16.999-15.293-16.999-8.103,0-12.206,1.117-17.06,3.067l-13.526,76.608h-14.237l14.582-82.761c8.449-3.717,19.071-6.154,32.983-6.154,24.31,0,29.063,13.445,26.869,25.915l-11.109,63h-14.257Z"/><path id="path1445" class="cls-2" d="m486.027,181.747H4.793l.447-2.864h481.193l-.406,2.864Z"/><path id="path1447" class="cls-1" d="m263.638,116.98c-3.899,22.036-13.668,37.106-31.642,37.106-4.549,0-8.977-.488-11.942-2.112l11.8-66.9c4.448-2.254,8.367-3.392,14.846-3.392,16.512,0,20.31,16.207,16.938,35.298m-11.901-43.726c-8.571,0-13.75,1.767-18.522,4.042l7.515-42.569-15.699,9.078-19.985,113.347c4.59,3.412,13.161,6.154,25.001,6.154,25.915,0,42.995-18.786,47.93-46.813,4.651-26.403-6.154-43.239-26.24-43.239"/><path id="path1449" class="cls-1" d="m500,74.391h-14.887l-38.243,40.477h-.325l9.749-55.161C465.982,5.075,407.023-6.461,345.465,2.963c-41.838,6.418-78.801,23.092-78.801,23.092,0,0,48.255-16.877,90.723-19.294,53.617-3.046,95.638,5.077,83.371,61.883l-16.41,93.058h13.932l7.941-45.046h.325l25.427,45.046h16.207l-28.413-46.509,40.233-40.802Z"/><path id="path1451" class="cls-1" d="m12.673,210.303l-6.113,34.648H1.462l6.113-34.648H0l.609-3.432h20.249l-.609,3.432h-7.575Z"/><path id="path1453" class="cls-1" d="m36.496,244.951l3.717-21.142c.548-3.087-.284-5.869-5.037-5.869-2.214,0-4.062.386-6.073,1.482l-4.509,25.529h-4.874l7.677-43.442h4.854l-2.661,15.171c2.701-1.279,4.976-1.828,7.169-1.828,7.596,0,9.099,4.57,8.367,8.774l-3.757,21.325h-4.874Z"/><path id="path1455" class="cls-1" d="m62.878,217.716c-4.326,0-8.144,3.493-9.464,11.576l14.664-2.173c1.178-6.763-.955-9.403-5.199-9.403m-9.749,14.176c-.65,6.743,1.929,10.074,7.291,10.074,3.371,0,5.951-.833,7.657-1.726l.711,3.209c-2.011,1.097-5.341,2.051-9.383,2.051-7.799,0-12.409-4.935-10.541-15.557,1.808-10.134,7.697-15.374,14.724-15.374,7.149,0,10.642,4.651,8.774,14.603l-19.233,2.721Z"/><path id="path1457" class="cls-1" d="m109.245,209.368c-2.051,0-3.615.386-4.448.71l-2.803,15.943,1.625.162c7.9.793,11.455-2.884,12.45-8.408.975-5.524-1.016-8.408-6.824-8.408m-6.113,19.924l-1.686-.162-2.803,15.821h-4.976l6.438-36.537c2.336-1.219,5.849-2.112,9.891-2.112,8.977,0,12.165,4.834,10.987,11.516-1.198,6.763-6.804,12.592-17.852,11.475"/><path id="path1459" class="cls-1" d="m138.917,228.012c-7.677.955-12.45,2.539-13.506,8.571-.772,4.306,1.584,6.093,6.012,6.093,1.868,0,3.757-.345,5.098-.995l2.397-13.669Zm-8.388,17.487c-7.738,0-10.744-3.392-9.789-8.814,1.401-7.9,9.221-10.216,18.624-11.17l.325-1.828c.812-4.59-1.726-5.91-5.544-5.91-2.864,0-5.707,1.036-7.515,1.869l-.67-2.884c1.889-.934,5.443-2.193,9.525-2.193,5.545,0,9.992,2.376,8.692,9.688l-3.371,19.132c-2.498,1.3-6.113,2.112-10.277,2.112"/><path id="path1461" class="cls-1" d="m163.938,244.951l3.778-21.427c.487-2.762-.141-5.809-5.24-5.809-2.762,0-4.163.386-5.829,1.057l-4.61,26.179h-4.874l4.996-28.271c2.884-1.279,6.499-2.112,11.272-2.112,8.307,0,9.931,4.59,9.18,8.855l-3.798,21.528h-4.874Z"/><path id="path1463" class="cls-1" d="m211.524,216.05c-.406-2.986-.284-4.59-.284-4.59h-.122s-.487,1.605-1.97,4.59l-7.088,14.46h11.353l-1.888-14.46Zm3.757,28.9l-1.584-11.414h-13.059l-5.707,11.414h-4.651l19.599-38.08h4.549l6.113,38.08h-5.26Z"/><path id="path1465" class="cls-1" d="m236.057,218.142l-4.712,26.809h-4.895l4.732-26.809h-3.453l.548-3.026h3.432l.751-4.204c1.036-5.869,5.24-9.688,11.719-9.403l-.528,3.087c-2.965.162-5.484,1.564-6.235,5.768l-.833,4.752h5.199l-.528,3.026h-5.199Z"/><path id="path1467" class="cls-1" d="m258.317,218.325c-2.315-.731-5.118-.508-6.885.548l-4.61,26.077h-4.874l4.976-28.23c3.209-1.483,6.154-2.275,13.201-2.112l-1.808,3.717Z"/><path id="path1469" class="cls-1" d="m268.817,209.368c-1.604,0-2.681-1.219-2.417-2.66.264-1.503,1.747-2.721,3.351-2.721,1.564,0,2.62,1.219,2.356,2.721-.264,1.441-1.747,2.66-3.29,2.66m-8.713,35.582l5.26-29.835h4.874l-5.26,29.835h-4.874Z"/><path id="path1471" class="cls-1" d="m282.587,245.499c-6.54,0-10.317-5.87-8.611-15.496,1.706-9.809,7.535-15.435,14.176-15.435,3.656,0,5.443,1.157,6.235,1.99l-1.665,2.803c-.751-.65-1.95-1.422-4.163-1.422-5.443,0-8.408,4.935-9.647,11.901-1.239,7.129.426,12.064,5.24,12.064,2.051,0,3.554-.671,4.813-1.422l.67,3.026c-1.361,1.036-3.737,1.99-7.047,1.99"/><path id="path1473" class="cls-1" d="m312.767,228.012c-7.677.955-12.45,2.539-13.506,8.571-.772,4.306,1.564,6.093,5.991,6.093,1.889,0,3.798-.345,5.118-.995l2.397-13.669Zm-8.388,17.487c-7.738,0-10.764-3.392-9.789-8.814,1.381-7.9,9.221-10.216,18.624-11.17l.325-1.828c.812-4.59-1.726-5.91-5.544-5.91-2.884,0-5.727,1.036-7.515,1.869l-.67-2.884c1.889-.934,5.423-2.193,9.525-2.193,5.545,0,9.992,2.376,8.713,9.688l-3.392,19.132c-2.498,1.3-6.113,2.112-10.277,2.112"/><path id="path1475" class="cls-1" d="m337.808,244.951l3.757-21.427c.487-2.762-.141-5.809-5.22-5.809-2.782,0-4.184.386-5.849,1.057l-4.61,26.179h-4.854l4.976-28.271c2.884-1.279,6.519-2.112,11.272-2.112,8.307,0,9.931,4.59,9.18,8.855l-3.798,21.528h-4.854Z"/><path id="path1477" class="cls-1" d="m383.484,209.246c-2.011,0-3.554.285-5.179.833l-2.397,13.546h2.478c7.86,0,10.967-2.417,11.82-7.393.853-4.671-1.523-6.986-6.722-6.986m-5.463,16.938h-2.559l-2.661,15.171c1.32.609,2.864.874,5.199.874,4.976,0,9.221-1.99,10.195-7.535,1.015-5.91-1.95-8.51-10.175-8.51m-.386,19.314c-4.306,0-7.819-.772-10.013-2.112l6.154-34.973c2.315-1.219,6.113-2.112,10.277-2.112,8.368,0,12.125,4.001,11.15,9.525-.934,5.443-5.423,8.205-8.957,8.875l-.019.103c3.412.671,8.144,4.041,7.129,9.85-1.381,7.636-7.86,10.845-15.72,10.845"/><path id="path1479" class="cls-1" d="m415.573,228.012c-7.677.955-12.45,2.539-13.526,8.571-.751,4.306,1.584,6.093,6.012,6.093,1.889,0,3.757-.345,5.118-.995l2.396-13.669Zm-8.388,17.487c-7.758,0-10.764-3.392-9.809-8.814,1.422-7.9,9.221-10.216,18.644-11.17l.305-1.828c.812-4.59-1.706-5.91-5.524-5.91-2.884,0-5.727,1.036-7.535,1.869l-.65-2.884c1.889-.934,5.423-2.193,9.505-2.193,5.545,0,10.013,2.376,8.713,9.688l-3.371,19.132c-2.498,1.3-6.133,2.112-10.277,2.112"/><path id="path1481" class="cls-1" d="m441.204,244.951l3.778-21.427c.467-2.762-.141-5.809-5.24-5.809-2.782,0-4.164.386-5.849,1.057l-4.59,26.179h-4.874l4.996-28.271c2.884-1.279,6.499-2.112,11.272-2.112,8.286,0,9.911,4.59,9.18,8.855l-3.818,21.528h-4.854Z"/><path id="path1483" class="cls-1" d="m469.251,244.951l-8.672-15.374h-.141l-2.701,15.374h-4.752l7.657-43.442h4.752l-4.834,27.458h.102l13.1-13.851h5.057l-13.729,13.953,9.708,15.882h-5.545Z"/></svg>