<svg xmlns="http://www.w3.org/2000/svg" xmlns:xlink="http://www.w3.org/1999/xlink" id="Layer_1" x="0px" y="0px" viewBox="0 0 335.5 174.3" style="enable-background:new 0 0 335.5 174.3;" xml:space="preserve">
<style type="text/css">
	.st0{fill:#515151;}
	.st1{fill:#FFFFFF;}
	.st2{fill:#FDB913;}
	.st3{fill:#231F20;}
</style>
<path class="st0" d="M130.7,3H187h131.6c7.7,0,14,6.3,14,14l0,0v140.3c0,7.7-6.3,14-14,14l0,0h-130h-10.3c-75.7,0-88-6.6-88-14.3  l74,0.3L65.7,17c0-7.8,46-14,112.7-14H130.7z"></path>
<title>Asset 1</title>
<path class="st1" d="M161.3,3c7.7,0,14,6.3,14,14v140.3c0,7.7-6.3,14-14,14H21c-7.7,0-14-6.3-14-14l0,0V17C7,9.3,13.2,3,21,3l0,0  H161.3"></path>
<g>
	<path class="st1" d="M187.8,78.9c0.3-2.4,0.8-4.5,1.7-6.2s2.2-3.1,3.9-4.1s4-1.5,6.8-1.5s5.1,0.5,6.8,1.5s3,2.3,3.9,4.1   c0.9,1.7,1.5,3.8,1.7,6.2c0.3,2.4,0.4,5.1,0.4,7.9c0,2.9-0.1,5.5-0.4,8c-0.3,2.4-0.8,4.5-1.7,6.2s-2.2,3.1-3.9,4s-4,1.4-6.8,1.4   s-5.1-0.5-6.8-1.4s-3-2.2-3.9-4c-0.9-1.7-1.5-3.8-1.7-6.2c-0.3-2.4-0.4-5.1-0.4-8C187.4,83.9,187.5,81.3,187.8,78.9z M195.2,93.3   c0.1,1.8,0.4,3.2,0.7,4.3s0.9,1.9,1.6,2.4s1.6,0.8,2.7,0.8c1.1,0,2-0.3,2.7-0.8s1.2-1.3,1.6-2.4s0.6-2.6,0.7-4.3   c0.1-1.8,0.2-4,0.2-6.5s-0.1-4.7-0.2-6.5c-0.1-1.8-0.4-3.2-0.7-4.3c-0.4-1.1-0.9-2-1.6-2.5c-0.7-0.5-1.6-0.8-2.7-0.8   c-1.1,0-2,0.3-2.7,0.8s-1.2,1.3-1.6,2.5c-0.4,1.1-0.6,2.6-0.7,4.3c-0.1,1.8-0.2,3.9-0.2,6.5C195,89.3,195.1,91.5,195.2,93.3z"></path>
	<path class="st1" d="M224.4,77.2v3.3h0.1c0.8-1.4,1.8-2.4,3-3.1s2.7-1,4.2-1c2.3,0,4.1,0.6,5.4,1.9s1.9,3.3,1.9,6.2v21.2h-7.3V86   c0-1.5-0.2-2.5-0.7-3.1s-1.3-0.9-2.4-0.9c-2.6,0-3.9,1.6-3.9,4.7v18.9h-7.3V77.2H224.4z"></path>
	<path class="st1" d="M251.5,67.9v37.9h-7.3V67.9H251.5z"></path>
	<path class="st1" d="M264.2,67.4v6.3h-7.3v-6.3H264.2z M264.2,77.2v28.5h-7.3V77.2H264.2z"></path>
	<path class="st1" d="M276.4,77.2v3.3h0.1c0.8-1.4,1.8-2.4,3-3.1s2.7-1,4.2-1c2.3,0,4.1,0.6,5.4,1.9s1.9,3.3,1.9,6.2v21.2h-7.3V86   c0-1.5-0.2-2.5-0.7-3.1s-1.3-0.9-2.4-0.9c-2.6,0-3.9,1.6-3.9,4.7v18.9h-7.3V77.2H276.4z"></path>
	<path class="st1" d="M302.1,94.8c0,0.8,0.1,1.7,0.2,2.5s0.3,1.5,0.6,2.1c0.3,0.6,0.7,1.1,1.1,1.5c0.5,0.4,1,0.6,1.7,0.6   c1.2,0,2.1-0.4,2.7-1.3s1-2.2,1.2-4h6.6c-0.1,3.3-1,5.9-2.7,7.6c-1.6,1.7-4.2,2.6-7.7,2.6c-2.7,0-4.7-0.4-6.2-1.3s-2.6-2-3.3-3.5   c-0.7-1.4-1.1-3.1-1.3-4.9s-0.2-3.6-0.2-5.4c0-1.9,0.1-3.7,0.4-5.5s0.8-3.3,1.6-4.7c0.8-1.4,1.9-2.5,3.4-3.3s3.5-1.2,5.9-1.2   c2.1,0,3.9,0.3,5.2,1c1.4,0.7,2.4,1.7,3.2,2.9c0.8,1.3,1.3,2.8,1.6,4.6c0.3,1.8,0.4,3.8,0.4,6v1.6H302L302.1,94.8L302.1,94.8z    M309.4,85.3c-0.1-0.8-0.3-1.5-0.6-2.1c-0.3-0.6-0.6-1-1.1-1.3s-1.1-0.5-1.8-0.5s-1.4,0.2-1.8,0.5s-0.9,0.8-1.1,1.3   c-0.3,0.5-0.5,1.2-0.6,1.8c-0.1,0.7-0.2,1.3-0.2,2v1.1h7.5C309.6,87.1,309.5,86.2,309.4,85.3z"></path>
</g>
<path class="st2" d="M17,3h140.3c7.7,0,14,6.3,14,14l0,0v140.3c0,7.7-6.3,14-14,14l0,0H17c-7.7,0-14-6.3-14-14l0,0V17  C3,9.2,9.2,3,17,3L17,3z"></path>
<path class="st3" d="M97,89V58.9l7.9-1.9v4c0,0,2-5.2,6.8-6.4c0.7-0.2,1.5-0.3,2.2-0.1V62c-1.4,0-2.8,0.3-4.1,0.9  c-2.9,1.1-4.4,3.7-4.4,7.5V87L97,89z"></path>
<path class="st3" d="M55.5,98.8c0,0-1.3-1.9-1.3-8.7V75l-4,1v-6.2l4.1-1v-6.7l8.4-2v6.7l5.9-1.4v6.2L62.7,73c0,0,0,12.3,0,15.3  c0,6.9,1.8,8.3,1.8,8.3L55.5,98.8z"></path>
<path class="st3" d="M69.4,80.8c0-5.4,0.8-9.3,2.4-12.3c1.9-3.6,5.1-5.9,9.8-6.9c9.2-2.1,12.5,3.3,12.4,10.6c0,2.6,0,3.9,0,3.9  l-16.2,3.8v0.3c0,5.1,1.1,7.5,4.3,6.8c2.8-0.6,3.6-2.3,3.8-4.5c0-0.3,0.1-1.2,0.1-1.2l7.6-1.8c0,0,0,0.6,0,1.3  c-0.1,2.9-0.9,10.1-11.4,12.6C72,95.7,69.4,89.6,69.4,80.8 M81.9,67.2c-2.7,0.6-4.1,3.2-4.1,7.6l8.1-1.9c0-0.2,0-0.6,0-1.3  C85.9,68.3,84.9,66.6,81.9,67.2"></path>
<path class="st3" d="M142.1,63.2c-0.3-9.2,2.1-16.5,12.3-18.8c6.5-1.5,9,0.2,10.3,1.9c1.2,1.6,1.7,3.7,1.7,6.6v0.5l-8,1.9v-1.1  c0-3.5-1-4.8-3.5-4.2c-3,0.8-4.3,3.6-4.3,9.4c0,2,0,2.4,0,2.7c0,5.8,0.8,8.5,4.3,7.7c3-0.6,3.4-3.3,3.5-5.6c0-0.4,0-1.5,0-1.5l8-1.9  c0,0,0,0.6,0,1.2c0,7.6-4,12.4-11.6,14.2C144.4,78.6,142.4,72.6,142.1,63.2"></path>
<path class="st3" d="M114.4,76.1c0-7,4.1-9.2,10.2-11.7c5.5-2.3,5.7-3.4,5.7-5.4c0-1.7-0.7-3.1-3.5-2.4c-1.9,0.4-3.3,2-3.3,3.9  c0,0.5-0.1,1-0.1,1.5l-7.8,1.8c-0.1-1.5,0.1-3.1,0.5-4.6c1.2-4.2,4.9-7,11.3-8.5c8.3-1.9,11,1.7,11,7.4v13.3c0,6.5,1.2,7.4,1.2,7.4  l-7.6,1.8c-0.4-0.9-0.8-1.8-1-2.7c0,0-1.7,4.2-7.4,5.6C117.6,84.9,114.4,81.2,114.4,76.1 M130.3,66.5c-1.3,0.9-2.6,1.7-4.1,2.4  c-2.5,1.2-3.7,2.8-3.7,5.1c0,2,1.3,3.4,3.6,2.8c2.5-0.6,4.2-2.9,4.2-6.1V66.5z"></path>
<path class="st3" d="M11.7,119.9c-2.7,0-4.8-2.2-4.8-4.8c0-0.9,0.3-1.8,0.8-2.6l0.1-0.1h0.1l11.4-2.7v8.6h-0.2  c-2.6,0.6-5.7,1.3-6.3,1.5C12.4,119.8,12.1,119.9,11.7,119.9"></path>
<path class="st3" d="M11.7,130.9c-2.7,0-4.8-2.2-4.8-4.8c0-0.9,0.3-1.8,0.8-2.6l0.1-0.1h0.1l11.4-2.7v8.6h-0.2  c-2.6,0.6-5.7,1.3-6.3,1.5C12.4,130.9,12.1,130.9,11.7,130.9"></path>
<path class="st3" d="M11.7,142c-2.7,0-4.8-2.2-4.8-4.8c0-0.9,0.3-1.8,0.8-2.6l0.1-0.1l11.5-2.7v8.6h-0.2c-2.7,0.7-5.8,1.3-6.3,1.5  C12.4,142,12.1,142,11.7,142"></path>
<polygon class="st3" points="10.4,109.3 10.4,60.9 19.2,58.9 19.2,107.2 "></polygon>
<path class="st3" d="M32.4,105.2c0-3-2.4-5.4-5.4-5.4s-5.4,2.4-5.4,5.4l0,0v45.2c0,8.1,6.6,14.7,14.7,14.7c4.1,0,15.4,0,15.4,0  v-18.9c0-10.3,0-20.8,0-21c0-2.4-1.2-4.6-3.2-5.9L34.7,110c0,0,0,20.2,0,21.2c0,0.6-0.5,1.2-1.2,1.2c-0.6,0-1.2-0.5-1.2-1.2  C32.4,130.9,32.4,108,32.4,105.2"></path>
<path class="st3" d="M39.7,71.5c-3.4,0.8-6.2,3-7.8,6.1v-3.4l-8,1.8v21.7c2.8-1.1,6.1-0.6,8.4,1.5v-14c0-3.4,1.7-6,4.1-6.6  c1.8-0.4,3.3,0.2,3.3,3.4v20.4l8.4-2V78.9C48,73.7,46,70,39.7,71.5"></path>
<path class="st3" d="M161.2,40.5c-2.9,0-5.2-2.3-5.2-5.2s2.3-5.2,5.2-5.2s5.2,2.3,5.2,5.2l0,0C166.3,38.2,164,40.5,161.2,40.5   M161.2,30.8c-2.5,0-4.5,2-4.5,4.5s2,4.5,4.5,4.5s4.5-2,4.5-4.5C165.7,32.9,163.7,30.8,161.2,30.8"></path>
<path class="st3" d="M159.3,32.3h2.2c0.8-0.1,1.5,0.5,1.6,1.3c0,0.1,0,0.2,0,0.3c0,0.8-0.4,1.4-1.1,1.6l0,0c0.6,0.1,1,0.4,1,1.3  c0,0.4,0,0.9,0,1.3c0,0.2,0.1,0.4,0.3,0.5h-1.1c-0.1-0.2-0.2-0.4-0.2-0.6c0-0.4,0-0.7,0-1.2c0-0.7-0.2-1-0.9-1h-0.8v2.7h-1V32.3z   M161.1,35.1c0.5,0,1-0.3,1-0.8c0-0.1,0-0.1,0-0.2c0-0.7-0.3-1-1-1h-0.9v2H161.1z"></path>
</svg>