<svg xmlns:cc="http://creativecommons.org/ns#" xmlns:dc="http://purl.org/dc/elements/1.1/" xmlns:rdf="http://www.w3.org/1999/02/22-rdf-syntax-ns#" xmlns="http://www.w3.org/2000/svg" xmlns:xlink="http://www.w3.org/1999/xlink" id="Layer_1" x="0px" y="0px" viewBox="0 0 104 79.3" style="enable-background:new 0 0 104 79.3;" xml:space="preserve">
<style type="text/css">
	.st0{fill:#231F20;}
	.st1{fill:#F79410;}
	.st2{fill:#FF5F00;}
	.st3{fill:#EB001B;}
	.st4{fill:#F79E1B;}
</style>
<g transform="translate(1565.7 -1106.8)">
	<g transform="matrix(3.1437 0 0 3.1437 -4835.7 -1027.6)">
		<g transform="matrix(1.25 0 0 -1.25 1102.5 727.74)">
			<path class="st0" d="M-24.5,19.2L-24.5,19.2L-24.5,19.2C-24.4,19.1-24.4,19.1-24.5,19.2C-24.4,19.1-24.4,19.1-24.5,19.2     C-24.4,19.1-24.4,19.1-24.5,19.2C-24.4,19.2-24.4,19.2-24.5,19.2L-24.5,19.2z M-24.5,19.2C-24.4,19.2-24.4,19.2-24.5,19.2     C-24.4,19.2-24.4,19.2-24.5,19.2c0.1-0.1,0.1-0.1,0.1-0.1c0,0,0,0,0,0l0.1-0.1h0l-0.1,0.1h0V19h0L-24.5,19.2L-24.5,19.2z      M-24.5,18.9C-24.4,18.9-24.4,18.9-24.5,18.9c0.1,0,0.1,0,0.1,0c0,0,0,0,0,0.1c0,0,0,0,0,0.1c0,0,0,0,0,0.1c0,0,0,0,0,0.1     s0,0-0.1,0c0,0,0,0-0.1,0c0,0,0,0-0.1,0c0,0,0,0-0.1,0s0,0,0-0.1c0,0,0,0,0-0.1c0,0,0,0,0-0.1c0,0,0,0,0-0.1     C-24.6,19-24.6,19-24.5,18.9C-24.5,18.9-24.5,18.9-24.5,18.9 M-24.5,19.3C-24.4,19.3-24.4,19.3-24.5,19.3c0.1,0,0.1,0,0.1-0.1     c0,0,0,0,0-0.1c0,0,0-0.1,0-0.1c0,0,0-0.1,0-0.1c0,0,0,0,0-0.1c0,0,0,0-0.1,0c0,0-0.1,0-0.1,0c0,0-0.1,0-0.1,0c0,0,0,0-0.1,0     c0,0,0,0,0,0.1c0,0,0,0.1,0,0.1c0,0,0,0.1,0,0.1c0,0,0,0,0,0.1C-24.6,19.3-24.6,19.3-24.5,19.3C-24.5,19.3-24.5,19.3-24.5,19.3      M-44,20c0,0.4,0.2,0.7,0.6,0.7c0.4,0,0.6-0.3,0.6-0.7c0-0.4-0.3-0.7-0.6-0.7C-43.8,19.4-44,19.7-44,20 M-42.3,20v1h-0.5v-0.3     c-0.1,0.2-0.4,0.3-0.7,0.3c-0.6,0-1-0.5-1-1.1c0-0.6,0.5-1.1,1-1.1c0.3,0,0.5,0.1,0.7,0.3V19h0.5V20z M-26.9,20     c0,0.4,0.2,0.7,0.6,0.7c0.4,0,0.6-0.3,0.6-0.7c0-0.4-0.3-0.7-0.6-0.7C-26.7,19.4-26.9,19.7-26.9,20 M-25.2,20v1.9h-0.5v-1.1     c-0.1,0.2-0.4,0.3-0.7,0.3c-0.6,0-1-0.5-1-1.1c0-0.6,0.5-1.1,1-1.1c0.3,0,0.5,0.1,0.7,0.3V19h0.5V20z M-36.7,20.7     c0.3,0,0.5-0.2,0.5-0.5h-1.1C-37.2,20.5-37,20.7-36.7,20.7 M-36.7,21.1c-0.6,0-1-0.4-1-1.1c0-0.7,0.4-1.1,1.1-1.1     c0.3,0,0.6,0.1,0.9,0.3l-0.2,0.3c-0.2-0.1-0.4-0.2-0.6-0.2c-0.3,0-0.6,0.1-0.6,0.5h1.6c0,0.1,0,0.1,0,0.2     C-35.7,20.7-36.1,21.1-36.7,21.1 M-31.2,20c0,0.4,0.2,0.7,0.6,0.7c0.4,0,0.6-0.3,0.6-0.7c0-0.4-0.3-0.7-0.6-0.7     C-30.9,19.4-31.2,19.7-31.2,20 M-29.5,20v1h-0.5v-0.3c-0.1,0.2-0.4,0.3-0.7,0.3c-0.6,0-1-0.5-1-1.1c0-0.6,0.5-1.1,1-1.1     c0.3,0,0.5,0.1,0.7,0.3V19h0.5V20z M-33.7,20c0-0.6,0.4-1.1,1.1-1.1c0.3,0,0.5,0.1,0.8,0.2l-0.2,0.4c-0.2-0.1-0.4-0.2-0.5-0.2     c-0.4,0-0.6,0.3-0.6,0.7c0,0.4,0.3,0.7,0.6,0.7c0.2,0,0.4-0.1,0.5-0.2l0.2,0.4c-0.2,0.2-0.4,0.2-0.8,0.2     C-33.3,21.1-33.7,20.7-33.7,20 M-27.9,21.1c-0.3,0-0.4-0.1-0.6-0.3v0.3h-0.5V19h0.5v1.2c0,0.3,0.1,0.5,0.4,0.5     c0.1,0,0.2,0,0.3-0.1l0.1,0.4C-27.6,21.1-27.8,21.1-27.9,21.1 M-40.1,20.9c-0.2,0.1-0.5,0.2-0.9,0.2c-0.5,0-0.9-0.3-0.9-0.7     c0-0.3,0.3-0.6,0.7-0.6l0.2,0c0.2,0,0.4-0.1,0.4-0.2c0-0.2-0.2-0.3-0.5-0.3c-0.3,0-0.5,0.1-0.7,0.2l-0.2-0.4     c0.2-0.2,0.6-0.3,0.9-0.3c0.6,0,1,0.3,1,0.7c0,0.4-0.3,0.6-0.7,0.6l-0.2,0c-0.2,0-0.4,0.1-0.4,0.2c0,0.2,0.1,0.2,0.4,0.2     c0.3,0,0.5-0.1,0.7-0.2L-40.1,20.9z M-34.2,21.1c-0.3,0-0.4-0.1-0.6-0.3v0.3h-0.5V19h0.5v1.2c0,0.3,0.1,0.5,0.4,0.5     c0.1,0,0.2,0,0.3-0.1l0.1,0.4C-34,21.1-34.1,21.1-34.2,21.1 M-38.1,21.1h-0.7v0.6h-0.5v-0.6h-0.4v-0.4h0.4v-1     c0-0.5,0.2-0.8,0.7-0.8c0.2,0,0.4,0.1,0.6,0.2l-0.1,0.4c-0.1-0.1-0.3-0.1-0.4-0.1c-0.2,0-0.3,0.1-0.3,0.4v0.9h0.7V21.1z      M-44.9,19v1.3c0,0.5-0.3,0.8-0.8,0.8c-0.3,0-0.5-0.1-0.7-0.4c-0.1,0.2-0.4,0.4-0.7,0.4c-0.2,0-0.4-0.1-0.6-0.3v0.3h-0.5V19h0.5     v1.2c0,0.4,0.2,0.6,0.5,0.6c0.3,0,0.5-0.2,0.5-0.6V19h0.5v1.2c0,0.4,0.2,0.6,0.5,0.6c0.3,0,0.5-0.2,0.5-0.6V19H-44.9z"></path>
		</g>
		<g transform="matrix(1.25 0 0 -1.25 1103.2 710.77)">
			<path class="st1" d="M-24.8,12.4v0.3h-0.1l-0.1-0.2l-0.1,0.2h-0.1v-0.3h0.1v0.2l0.1-0.2h0.1l0.1,0.2L-24.8,12.4L-24.8,12.4z      M-25.3,12.4v0.3h0.1v0.1h-0.3v-0.1h0.1L-25.3,12.4L-25.3,12.4z"></path>
		</g>
		<path class="st2" d="M1060.9,696.9h-8.6v-15.5h8.6V696.9z"></path>
		<g transform="matrix(1.25 0 0 -1.25 1064.5 698.59)">
			<path class="st3" d="M-9.4,7.5c0,2.5,1.2,4.8,3,6.2c-1.3,1.1-3,1.7-4.9,1.7c-4.4,0-7.9-3.5-7.9-7.9s3.5-7.9,7.9-7.9     c1.8,0,3.5,0.6,4.9,1.7C-8.2,2.8-9.4,5-9.4,7.5"></path>
		</g>
		<g transform="matrix(1.25 0 0 -1.25 1103.8 698.59)">
			<path class="st4" d="M-25,7.5c0-4.4-3.5-7.9-7.9-7.9c-1.8,0-3.5,0.6-4.9,1.7c1.8,1.4,3,3.7,3,6.2s-1.2,4.8-3,6.2     c1.3,1.1,3,1.7,4.9,1.7C-28.6,15.4-25,11.9-25,7.5"></path>
		</g>
	</g>
</g>
</svg>