<?xml version="1.0" encoding="UTF-8"?><svg id="svg1925" xmlns="http://www.w3.org/2000/svg" viewBox="0 0 385.967 186.258"><defs><style>.cls-1{fill:#ff8d01;}.cls-2{fill:#606060;}</style></defs><path class="cls-2" d="m199.583,0c2.694,1.039,5.57,1.54,8.102,3.081,2.803,1.706,5.036,3.914,6.862,6.602,2.494,3.671,4.491,7.605,5.492,11.914.905,3.896.529,7.831-.744,11.652-.276.829-.492,1.678-.752,2.513-.701,2.25-.701,2.172,1.766,2.259,8.634.306,15.542,3.789,20.524,11.004,2.457,3.558,4.495,7.274,5.158,11.554.624,4.026.123,7.973-1.357,11.832-1.326,3.457-3.244,6.451-5.719,9.191-3.338,3.696-7.267,6.623-11.564,9.018-9.022,5.029-18.135,9.896-27.216,14.819-3.393,1.839-6.756,3.74-10.216,5.446-3.301,1.628-6.693,1.173-9.669-2.389-1.934-2.315-1.997-6.003-.275-8.865.953-1.584,2.451-2.342,3.939-3.133,3.67-1.95,7.118-4.444,10.899-5.999,4.719-1.94,8.894-4.715,13.293-7.132,5.086-2.794,10.216-5.535,15.024-8.819,2.534-1.73,3.864-4.209,4.375-7.071,1.386-7.755-3.631-13.42-9.617-15.272-3.199-.989-6.147-.61-9.086,1.107-3.89,2.274-7.941,4.273-11.911,6.411-2.454,1.321-4.918,2.627-7.322,4.035-3.567,2.087-8.059.157-9.798-3.232-1.619-3.154-1.108-7.39,2.412-9.526,5.745-3.486,11.454-7.034,17.214-10.489,5.394-3.236,6.287-10.135,4.115-14.98-1.654-3.691-4.204-6.243-7.904-7.738-3.648-1.474-7.129-.643-10.382,1.064-5.866,3.078-11.415,6.726-17.391,9.627-4.08,1.98-9.075-.894-10.203-4.313-1.526-4.627-.079-7.988,4.25-10.41,5.348-2.991,10.537-6.272,15.924-9.187,2.738-1.482,5.64-2.745,8.742-3.413,1.51-.325,2.994-.769,4.49-1.159,2.848,0,5.695,0,8.543,0Z"/><path class="cls-2" d="m385.967,152.417c-.496.263-.618.777-.755,1.239-.901,3.027-3.789,4.358-6.6,2.817-2.305-1.264-4.591-1.831-7.133-.974-2.238.754-3.73,2.639-3.751,4.966-.054,5.876-.025,11.753-.079,17.629-.014,1.466-.14,2.942-.351,4.393-.27,1.859-3.115,3.854-5.077,3.669-2.436-.229-4.189-1.808-4.202-4.092-.059-10.461-.019-20.922-.08-31.383-.011-1.83,1.034-2.967,2.393-3.575,1.689-.756,3.57-.892,5.161.566,2.177,1.996,2.129,1.877,4.793.439,3.989-2.154,8.107-2.257,12.248-.308,1.574.741,2.109,2.482,3.435,3.451v1.163Z"/><path class="cls-1" d="m37.343,157.563c-2.577,4.917-5.182,9.82-7.716,14.759-.97,1.89-2.386,3.066-4.496,3.36-2.581.361-4.337-.96-5.461-3.045-2.391-4.437-4.631-8.956-6.936-13.44-.352-.684-.722-1.359-1.307-2.457-.056.936-.113,1.454-.114,1.972-.006,7.043.028,14.085-.017,21.128-.023,3.637-2.028,5.608-5.091,5.958-3.215.367-6.143-2.07-6.147-5.339-.009-8.335-.003-16.67-.003-25.004,0-5.815.12-11.634-.052-17.443-.083-2.802,1.269-5.364,4.017-6.059,2.606-.659,5.503.618,6.915,3.279,3.131,5.897,6.193,11.831,9.298,17.742.975,1.856,2.062,3.655,2.968,5.543.521,1.085.973.803,1.445.106.422-.623.708-1.339,1.057-2.011,3.593-6.92,7.233-13.817,10.764-20.769,2.229-4.389,6.281-4.839,9.009-3.136,2.238,1.397,2.883,3.726,2.885,6.15.012,13.883-.042,27.766-.112,41.649-.01,1.893-.846,3.542-2.282,4.749-2.962,2.489-8.339-1.035-8.305-4.14.084-7.816.028-15.633.028-23.45-.115-.034-.23-.067-.345-.101Z"/><path class="cls-2" d="m180.177,159.197c0-7.172.036-14.343-.016-21.514-.023-3.263,1.601-4.606,4.075-4.658,7.392-.156,14.845-.903,22.162.477,4.656.878,8.466,3.367,10.268,8.142,2.022,5.357,1.387,10.284-2.255,14.765-.081.1-.176.191-.273.275-.817.709-2.408,1.103-2.307,2.132.102,1.041,1.784,1.274,2.588,2.06,2.041,1.996,3.487,4.44,3.745,7.268.487,5.331-.435,10.313-4.747,14.078-2.46,2.148-5.318,3.48-8.599,3.523-6.466.084-12.933-.004-19.4.037-3.323.021-5.36-2.045-5.293-5.265.147-7.104.046-14.213.046-21.32h.006Zm17.033,17.264v-.008c1.747,0,3.497.062,5.24-.014,3.073-.132,5.8-2.897,5.812-6.213.01-2.891-.65-5.296-4.558-6.178-4.017-.907-8.085-.259-12.127-.394-1.035-.035-.926.619-.926,1.272.003,3.425.042,6.851-.022,10.276-.02,1.06.359,1.316,1.34,1.278,1.745-.067,3.494-.019,5.241-.019Zm.391-22.44c1.802-.516,4.184.521,6.62-.706,2.743-1.382,3.175-3.473,3.128-6.047-.045-2.48-.981-4.077-3.249-4.799-4.204-1.338-8.534-.615-12.82-.505-.817.021-.617.685-.619,1.152-.015,3.228.036,6.457-.032,9.684-.023,1.112.47,1.263,1.388,1.235,1.679-.05,3.361-.014,5.583-.014Z"/><path class="cls-1" d="m144.79,149.463c.617-2.262,2.607-2.004,3.935-2.579,4.851-2.103,12.613-.112,15.666,4.165,1.226,1.718,1.985,3.915,2.203,6.188.74,7.718.206,15.452.365,23.176.021,1.033-.232,2.043-.218,3.105.016,1.226-1.651,1.587-2.798,1.935-3.074.932-5.366.585-6.973-1.965-.544-.863-.467-1.711-.472-2.574-.031-5.619.011-11.238-.035-16.857-.012-1.522-.153-3.058-.4-4.56-.352-2.14-2.355-3.658-5.047-4.002-2.161-.276-4.631.889-5.541,2.623-.689,1.312-1.05,2.641-1.023,4.194.107,6.069.072,12.142.028,18.213-.014,1.944-.286,3.829-2.441,4.748-2.157.92-4.31,1.071-6.235-.365-1.296-.967-1.373-2.623-1.376-4.104-.033-14.791-.049-29.582.005-44.372.011-3.026,1.376-4.172,4.425-4.181,4.379-.014,5.635,1.254,5.639,5.686.003,3.617.006,7.234.017,10.851,0,.106.083.211.277.677Z"/><path class="cls-1" d="m179.78,82.807c.071,5.107-4.862,9.526-10.787,6.674-1.417-.682-2.334-2.39-3.22-3.863-2.997-4.986-5.841-10.064-8.836-15.053-2.329-3.88-4.525-7.882-6.757-11.841-2.911-5.165-6.15-10.151-8.939-15.378-1.68-3.148-4.247-5.906-4.746-9.623-.346-2.576,1.746-7.09,5.275-7.369,2.243-.177,4.346-.063,6.305,1.19.376.24.709.389.973.804,2.803,4.392,5.383,8.93,8.001,13.42,2.439,4.183,4.899,8.379,7.232,12.637,2.593,4.731,5.314,9.399,8.162,13.981,2.334,3.754,4.19,7.79,6.855,11.354.584.781.52,2.007.482,3.066Z"/><path class="cls-2" d="m336.549,168.873c-3.035,0-6.071.028-9.106-.016-.98-.014-1.345.252-1.339,1.309.035,5.724,5.558,8.506,10.107,7.669,1.846-.34,3.572-1.078,5.098-2.286,1.003-.794,2.228-1.142,3.583-1.05,1.331.09,2.801.217,3.256,1.534.538,1.558.891,3.259-.514,4.811-2.472,2.729-5.594,4.237-9.097,4.87-4.305.778-8.551.421-12.681-1.234-5.175-2.074-7.782-6.271-8.916-11.298-1.297-5.748-1.261-11.591,1.055-17.193,1.309-3.166,3.054-6.009,6.25-7.647,6.62-3.393,13.121-3.199,19.276,1.012,3.852,2.635,5.695,6.608,6.33,11.159.225,1.616.608,3.168.068,4.879-.736,2.332-1.734,3.407-4.265,3.459-3.034.062-6.07.015-9.105.015v.008Zm-3.046-6.152c2.061,0,4.123.013,6.184-.009.521-.006,1.456.17,1.197-.718-.455-1.563-.372-3.337-1.459-4.666-2.648-3.241-5.04-3.221-8.738-2.489-1.946.385-4.276,3.953-4.523,6.46-.103,1.041.189,1.503,1.35,1.45,1.993-.09,3.993-.025,5.989-.026Z"/><path class="cls-2" d="m245.341,168.874c-3.036,0-6.072.033-9.106-.019-.989-.017-1.323.261-1.344,1.299-.068,3.477,2.974,6.962,6.44,7.501,3.316.516,6.171-.09,8.907-2.173,2.802-2.134,6.16-1.152,7.017,1.784.546,1.87-.248,3.45-1.653,4.57-4.397,3.509-9.376,4.679-15.012,4.027-3.171-.367-6.023-1.194-8.645-2.894-3.784-2.452-5.52-6.278-6.223-10.465-.902-5.365-1.076-10.761.987-16.021,2.098-5.349,5.576-8.923,11.453-9.91,4.892-.821,9.535-.435,13.75,2.375,4.021,2.681,5.922,6.662,6.696,11.292.304,1.816.703,3.599.023,5.446-.833,2.264-1.787,3.116-4.186,3.162-3.034.058-6.07.014-9.105.014v.011Zm-2.735-6.152c2.062,0,4.124-.02,6.185.009.914.013,1.211-.204,1.038-1.235-.686-4.08-2.365-5.973-6.466-6.77-5.221-1.015-7.906,2.991-8.106,6.55-.061,1.079.214,1.509,1.358,1.466,1.994-.076,3.994-.021,5.991-.019Z"/><path class="cls-1" d="m80.287,182.666c-5.525,4.947-12.438,4.479-17.8.458-3.15-2.362-4.465-5.98-4.518-9.856-.098-7.232-.006-14.466.041-21.699.014-2.167.182-4.304,2.816-5.049,2.088-.591,4.17-.627,6.021.577,1.06.689,1.06,2.218.938,3.168-.655,5.079-.069,10.159-.275,15.23-.057,1.419.001,2.842-.007,4.263-.024,3.921,3.255,6.729,6.54,6.714,3.307-.015,5.993-2.73,6.053-6.527.102-6.394.043-12.79.032-19.185-.005-3.035,1.472-4.53,4.56-4.547.388-.002.776-.002,1.164,0,2.798.011,4.118,1.132,3.989,3.777-.463,9.475-.031,18.954-.231,28.429-.046,2.195-.069,4.343-2.271,5.98-.831.618-1.329,2.042-2.57,1.686-1.674-.48-3.475-1.066-4.107-3.067-.032-.102-.176-.169-.375-.351Z"/><path class="cls-1" d="m115.135,146.613c1.704-.164,3.818-.266,5.609.504,2.689,1.156,5.493,2.426,6.811,5.388.545,1.225-.218,4.547-1.251,5.158-1.831,1.083-4.454,1.529-6.126.195-2.13-1.7-4.475-2.548-7.234-1.606-2.637.901-3.559,3.07-4.269,5.463-1.251,4.214-1.132,8.374,1.18,12.135,1.997,3.249,5.431,4.477,9.084,1.921,1.462-1.023,2.845-1.936,4.915-1.729,4.114.411,4.898,5.21,2.749,7.579-2.563,2.825-5.81,4.299-9.612,4.528-3.867.233-7.607-.177-11.037-2.195-4.24-2.495-6.812-6.161-7.887-10.935-1.216-5.404-1.206-10.838.586-16.039,2.498-7.251,8.315-10.754,16.482-10.368Z"/><path class="cls-2" d="m304.426,143.927q.065,4.239,4.261,4.223c2.228-.009,3.963,1.402,3.835,3.435-.134,2.127-.89,3.987-3.796,3.959-4.234-.041-4.235.032-4.235,4.352,0,4.65-.016,9.299.006,13.949.013,2.711.817,3.524,3.483,3.788,1.937.191,3.872.321,4.46,2.818.589,2.503-.928,4.968-3.504,5.02-3.406.069-6.923.629-9.978-1.654-2.672-1.996-4.137-4.623-4.172-7.931-.064-6.134-.079-12.27.025-18.404.028-1.625-.405-2.075-2.02-2.004-2.928.129-4.427-1.478-4.288-4.279.093-1.877,1.246-2.978,3.195-3.049q3.072-.113,3.072-3.204c0-1.485-.019-2.971.01-4.456.072-3.637,2.998-4.841,6.05-4.186,2.496.536,3.369,1.726,3.58,4.332.088,1.09.015,2.193.015,3.29Z"/><path class="cls-2" d="m268.634,166.826c0-3.034-.096-6.072.038-9.1.076-1.709-.325-2.381-2.18-2.252-2.384.166-3.55-.907-4.077-3.247-.485-2.157.943-4.027,3.115-4.075.452-.01.911-.05,1.356.007,1.388.177,1.805-.457,1.771-1.779-.057-2.192.07-4.388.04-6.581-.018-1.297.544-2.174,1.591-2.848,3.621-2.329,7.867-.141,8.052,4.199.082,1.933.052,3.874,0,5.809-.025.93.308,1.259,1.23,1.205,1.095-.063,2.197-.031,3.295-.01,1.962.038,3.186,1.149,3.309,2.973.153,2.284-1.117,4.125-3.029,4.386-.127.017-.259-.002-.387.007-1.403.099-3.284-.618-4.092.288-.94,1.054-.281,2.953-.296,4.481-.043,4.518-.032,9.037-.009,13.556.014,2.718.914,3.448,3.661,3.816,3.89.521,4.347,1.16,4.127,4.916-.079,1.346-.783,2.539-2.201,2.717-3.299.414-6.676.742-9.795-.742-3.483-1.658-5.3-4.589-5.432-8.433-.106-3.094-.021-6.194-.021-9.292-.022,0-.044,0-.066,0Z"/></svg>