<?xml version="1.0" encoding="UTF-8"?><svg id="Layer_1" xmlns="http://www.w3.org/2000/svg" viewBox="0 0 287.242 172.141"><defs><style>.cls-1{fill:#008ccf;}.cls-2{fill:#f80000;}.cls-3{fill:#fff;}</style></defs><g><path class="cls-2" d="m143.838,104.953c-7.757-.243-15.752.631-23.632-.386-6.783-.875-10.651-4.553-12.168-11.09-.618-2.663-.655-5.364-.655-8.073,0-9.678.108-19.359-.053-29.035-.066-3.944.316-7.702,1.824-11.364,1.854-4.502,5.481-6.643,9.955-7.766,1.39-.349,2.797-.441,4.221-.441,13.16.003,26.319-.013,39.479.011,3.281.006,6.502.393,9.482,1.951,3.878,2.026,6.069,5.301,6.831,9.483.585,3.213.797,6.486.793,9.765-.012,9.614.03,19.227-.024,28.84-.018,3.201-.41,6.407-1.612,9.389-2.149,5.331-6.404,8.002-11.985,8.445-7.409.587-14.846.072-22.455.269Z"/><path class="cls-2" d="m178.164,36.765c-.997.466-1.626-.402-2.236-.803-1.926-1.266-3.994-2.115-6.217-2.605-.871-.192-1.297-.644-1.507-1.472-1.896-7.443-6.362-12.971-13.115-16.457-2.746-1.418-5.876-2.036-9.066-2.455-6.387-.84-11.959.834-17.146,4.309-5.056,3.387-8.214,8.168-9.92,13.926-.377,1.272-.903,2.027-2.307,2.284-2.221.405-4.142,1.577-5.966,2.863-.384.271-.707.626-1.197.441-.589-.222-.307-.774-.321-1.176-.373-10.812,3.632-19.899,11.518-27.106,5.367-4.905,11.823-7.751,19.279-8.366,10.317-.851,19.36,1.962,26.955,8.872,5.578,5.075,9.033,11.452,10.325,18.974.502,2.922.643,5.85.872,8.783l.048-.012Z"/><path class="cls-2" d="m178.115,36.777c-.005.111-.009.222-.014.332-.062-.054-.124-.108-.186-.162.079-.06.158-.119.243-.18.005-.001-.043.01-.043.01Z"/></g><g><path class="cls-1" d="m59.05,172.141c-.019-2.298-.031-4.595-.061-6.893-.008-.628.442-.447.757-.448,4.419-.009,8.837-.01,13.256.001.394,0,.764-.046,1.115-.213.828-.392,1.213-.978,1.137-1.96-.106-1.358-.037-1.369-1.419-1.362-2.749.015-5.503.141-8.247.024-2.344-.1-4.31-1.043-5.549-3.217-.822-1.442-1.096-2.916-1.077-4.575.076-6.76.049-13.521.009-20.282-.005-.851.215-1.063,1.049-1.032,1.832.068,3.668.036,5.501.011.494-.007.672.117.671.643-.017,6.096.01,12.192-.046,18.287-.005.511.086.994.122,1.486.047.627.953,1.26,1.605,1.259,1.556-.003,3.113-.026,4.668.012,2.056.051,2.844-.696,2.841-2.864-.009-5.957.01-11.915-.02-17.872-.004-.733.147-.99.937-.962,1.832.065,3.668.038,5.501.01.524-.008.721.109.72.68-.017,10.003.014,20.006-.038,30.008-.008,1.641-.105,3.285-.691,4.906-.814,2.251-2.305,3.584-4.56,4.18-.128.034-.283,0-.334.174h-17.848Z"/><path class="cls-1" d="m0,172.141c.014-.22.04-.44.04-.66.002-10.445.007-20.89-.003-31.335-.002-1.727.22-3.369.996-4.961.699-1.434,1.907-2.071,3.263-2.612.971-.387,1.983-.368,2.997-.368,3.112,0,6.224-.013,9.336.008,1.288.009,2.542.225,3.735.764,2.144.968,2.967,2.86,3.137,4.953.453,5.575.18,11.171.158,16.757-.011,2.721-1.572,4.59-3.956,5.872-1.152.619-2.338.7-3.57.705-2.723.01-5.446.019-8.169-.01-.592-.006-.749.185-.744.756.024,3.075.013,6.151.009,9.226,0,.302-.037.605-.058.907H0Zm16.513-25.442c0-1.633-.017-3.267.005-4.9.022-1.697-.75-2.145-2.107-2.214-1.893-.096-3.808-.202-5.706.109-.818.134-1.525.922-1.52,1.763.018,2.988.029,5.976.05,8.965.004.58.007,1.163.069,1.739.11,1.013.83,1.673,1.867,1.689,1.749.028,3.498.035,5.247.017,1.409-.014,2.091-.746,2.094-2.186.004-1.661,0-3.322,0-4.983Z"/><path class="cls-1" d="m287.242,154.178c-.477.68-.465,1.514-.697,2.27-.62,2.02-1.918,3.385-3.855,4.158-1.114.444-2.262.689-3.49.676-2.915-.032-5.834.117-8.745.021-2.786-.092-5.078-.984-6.423-4.163-.403-.951-.992-2.062-.529-3.29.121-.321-.119-.836-.119-1.275.006-4.461-.114-8.926.041-13.381.124-3.572,2.294-6.579,6.313-6.979,4.319-.429,8.652-.09,12.977-.194.639-.015,1.283-.052,1.916.011.695.069.818-.221.81-.844-.031-2.576.02-5.154-.034-7.73-.016-.753.201-.996.921-.888.298.044.608.007.913.007v31.601Zm-1.832-10.253h.018c0-3.103-.023-6.206.017-9.309.009-.709-.137-.933-.896-.915-4.6.111-9.2-.007-13.804.137-3.318.104-5.606,2.847-5.646,5.603-.063,4.321-.006,8.643-.007,12.965,0,.998-.032,2,.148,2.983.211,1.151.611,2.203,1.68,2.884,1.2.765,2.486,1.228,3.914,1.215,3.072-.028,6.153.253,9.215-.157,3.273-.439,5.342-2.812,5.357-6.099.015-3.103.003-6.205.003-9.308Z"/><path class="cls-1" d="m38.362,132.215c2.612,0,5.225-.034,7.836.013,1.455.026,2.89.314,4.159,1.058,1.835,1.077,2.569,2.849,2.672,4.855.274,5.34.07,10.686.118,16.029.021,2.35-.749,4.352-2.659,5.838-1.134.882-2.434,1.249-3.846,1.252-3.693.008-7.395.158-11.076-.052-3.054-.175-5.306-1.619-6.032-4.972-.107-.492-.133-.972-.092-1.512.155-2.067.162-4.157.04-6.228-.126-2.151.923-4.324,2.391-5.388,1.231-.893,2.663-1.181,4.119-1.214,3-.068,6.002-.016,9.002-.055.34-.004.983.378,1.018-.404.048-1.076-.387-1.665-.923-1.727-.598-.069-1.186-.177-1.797-.174-4.307.018-8.614-.002-12.921.023-.601.004-.818-.113-.802-.765.046-1.966.034-3.934.005-5.901-.008-.543.15-.705.702-.699,2.695.028,5.391.013,8.086.013,0,.004,0,.008,0,.011Zm2.964,21.659c.888,0,1.776,0,2.664,0,.055,0,.111,0,.166-.001,1.357-.033,1.854-.526,1.863-1.852.004-.498.01-.996-.002-1.494-.026-1.099-.304-1.5-1.398-1.674-2.198-.349-4.418-.185-6.623-.088-1.079.047-1.279.444-1.303,1.594-.011.553-.01,1.107-.008,1.66.005,1.21.6,1.829,1.809,1.852.943.018,1.887.004,2.83.004Z"/><path class="cls-1" d="m138.838,146.67c0,2.494.014,4.987-.005,7.481-.013,1.737-.381,3.368-1.509,4.769-1.335,1.658-3.1,2.343-5.18,2.344-3.279.002-6.558-.015-9.837.001-1.822.009-3.501-.371-4.991-1.483-1.312-.979-1.904-2.381-2.007-3.884-.197-2.872-.201-5.766.006-8.637.109-1.518.753-2.857,2.072-3.907,1.124-.894,2.324-1.175,3.659-1.325,3.236-.363,6.48-.069,9.718-.179.348-.012.857.247.861-.507.006-1.057-.19-1.604-.843-1.62-.827-.02-1.63-.206-2.464-.199-4.085.037-8.17.001-12.254.033-.642.005-.786-.183-.774-.792.038-1.966.028-3.934.005-5.901-.006-.489.109-.675.641-.672,5.418.024,10.838-.028,16.255.06,1.62.026,3.247.389,4.562,1.505,1.449,1.23,1.959,2.9,2.01,4.688.078,2.739.021,5.482.021,8.224.018,0,.037,0,.055,0Zm-11.867,7.2s0-.007,0-.011c1.084,0,2.168.028,3.25-.008.932-.031,1.458-.528,1.511-1.427.044-.745.045-1.499-.015-2.242-.059-.721-.438-1.219-1.224-1.333-2.236-.324-4.483-.166-6.72-.097-1.099.034-1.316.43-1.351,1.578-.021.692-.03,1.386-.003,2.077.032.821.798,1.476,1.634,1.465.972-.012,1.945-.003,2.918-.003Z"/><path class="cls-1" d="m176.567,161.329c-2.693,0-5.387.017-8.08-.006-2.116-.018-4.024-.522-5.513-2.204-.86-.972-1.196-2.187-1.775-3.283-.114-.215.116-.774.115-1.181-.018-5.07-.04-10.141-.06-15.211-.006-1.597.068-3.165,1.023-4.562,1.02-1.493,2.44-2.294,4.197-2.491,3.957-.443,7.931-.18,11.894-.129,1.866.024,3.712.552,4.964,2.184.864,1.125,1.239,2.452,1.312,3.815.112,2.07.05,4.15.092,6.225.009.458-.144.64-.579.808-4.144,1.596-8.267,3.245-12.414,4.831-.783.299-1.563.613-2.352.897-1.007.363-1.118.566-.763,1.538.429,1.174.9,1.405,2.139,1.335,1.33-.075,2.667-.02,4.001-.02,3.057,0,6.114.014,9.17-.013.571-.005.764.135.753.731-.036,1.994-.034,3.99,0,5.984.009.554-.161.704-.703.699-2.473-.025-4.946-.011-7.419-.011,0,.022,0,.043,0,.065Zm-8.14-18.786c0,.533.006.976-.002,1.418-.007.406.18.47.522.329,1.161-.477,2.298-1.031,3.493-1.401,1.482-.459,2.871-1.158,4.373-1.564.379-.102.663-.478.408-1.032-.343-.746-1.035-.703-1.608-.726-1.661-.067-3.326-.019-4.989-.02-.581,0-1.051.247-1.513.577-.925.661-.628,1.628-.684,2.419Z"/><path class="cls-1" d="m96.313,161.265c-2.474,0-4.948-.022-7.421.015-.638.01-.795-.184-.783-.799.039-1.912.043-3.825-.001-5.736-.016-.673.144-.895.861-.888,3.78.037,7.56.018,11.341.017.278,0,.556.004.834-.01,1.174-.059,1.646-.593,1.615-1.819-.028-1.119-.589-1.682-1.691-1.685-2.057-.006-4.116.056-6.17-.024-2.815-.11-4.852-1.502-6.172-3.978-.345-.648-.504-1.3-.493-2.038.034-2.216-.127-4.445.052-6.648.224-2.759,1.847-4.929,4.995-5.246,5.421-.546,10.874-.111,16.311-.231.506-.011.509.246.508.613-.009,2.023-.026,4.047.01,6.069.01.566-.18.678-.704.675-3.864-.02-7.727-.015-11.591-.004-.377.001-.746-.007-1.139.108-1.279.376-1.579.753-1.426,2.05.086.727.856,1.283,1.859,1.291,2.196.017,4.392-.017,6.587.023,3.169.058,5.274,1.993,6.09,4.597.186.595.282,1.239.295,1.862.038,1.773.033,3.548.008,5.321-.035,2.455-2.291,5.486-4.599,6.221-.761.242-1.546.249-2.337.245-2.279-.012-4.559-.004-6.838-.004Z"/><path class="cls-1" d="m144.684,144.283c0-5.294.039-10.588-.016-15.882-.029-2.813,1.223-4.794,3.638-6.081,1.212-.646,2.589-.818,3.939-.906,1.384-.089,2.779-.012,4.168-.038.432-.008.574.119.569.56-.021,1.995-.022,3.991,0,5.987.005.458-.178.552-.588.549-.86-.006-1.727-.021-2.58.067-1.306.134-1.977.915-2.02,2.214q-.048,1.451,1.412,1.451c1.084,0,2.169.015,3.252-.007.398-.008.525.121.522.519-.016,2.106-.017,4.213,0,6.319.003.402-.129.521-.523.514-1.251-.021-2.504.032-3.752-.024-.67-.03-.82.189-.818.829.023,6.652.003,13.304.03,19.956.003.738-.151,1.003-.948.974-1.805-.065-3.614-.052-5.419-.004-.686.018-.888-.165-.884-.867.03-5.377.016-10.754.017-16.131Z"/><path class="cls-1" d="m224.821,132.056c2.472,0,4.953-.119,7.413.05,1.233.085,2.527-.181,3.735.417.575.284,1.071.588,1.54,1.041,2.078,2.008,2.694,4.521,2.691,7.279-.003,4.045.039,8.091-.019,12.136-.026,1.802-.101,3.622-1.143,5.238-.789,1.224-2.022,1.802-3.231,2.447-1.508.805-3.138.601-4.743.598-2.528-.006-5.058.023-7.584-.058-2.128-.068-3.786-.985-5.209-2.666-1.185-1.4-1.501-2.904-1.536-4.577-.041-1.982-.205-3.985.019-5.941.191-1.662.62-3.403,2.153-4.485,1.297-.916,2.645-1.614,4.342-1.698,4.883-.239,9.764-.046,14.645-.109.508-.007.652-.129.653-.646.004-1.945-.168-3.825-1.392-5.461-.672-.898-1.601-1.432-2.596-1.835-.33-.133-.796.118-1.192.091-4.904-.345-9.815-.068-14.721-.156-.444-.008-.895-.046-1.332.01-.634.081-.686-.267-.63-.733.051-.43-.263-1.022.635-1.007,2.5.042,5.002.015,7.503.015v.05Zm3.827,27.444c1.789,0,3.511.027,5.232-.012.831-.019,1.627-.247,2.338-.726,1.792-1.207,2.232-3.041,2.264-5.007.051-3.183-.003-6.368.03-9.552.007-.631-.175-.788-.793-.785-4.165.026-8.331.012-12.497.016-.733,0-1.535-.108-2.184.006-2.416.423-4.251,2.005-4.473,4.761-.171,2.118-.022,4.261-.057,6.392-.026,1.545.61,2.724,1.828,3.63.943.702,1.958,1.386,3.149,1.339,1.745-.069,3.488.02,5.163-.062Z"/><path class="cls-1" d="m191.494,147.13c0-2.493.002-4.986,0-7.479-.001-1.646.082-3.279,1.106-4.675,1.16-1.581,2.624-2.579,4.678-2.777,4.072-.393,8.146-.068,12.216-.194.899-.028.428.641.5,1.001.073.367.113.737-.535.73-3.361-.033-6.724-.039-10.085-.002-1.482.017-2.928.204-4.281.968-.799.451-1.151,1.155-1.501,1.87-.307.629-.462,1.31-.453,2.064.057,4.68.043,9.361.062,14.042.006,1.466.171,2.901.947,4.197,1.019,1.703,2.599,2.541,4.51,2.588,3.61.088,7.223.061,10.834.031.712-.006.872.209.862.881-.01.639-.095.92-.844.906-3.998-.071-8.002.119-11.995-.142-2.144-.14-3.679-1.436-4.843-3.132-.826-1.203-1.218-2.569-1.188-4.064.045-2.271.012-4.543.011-6.814Z"/><path class="cls-1" d="m248.711,149.678c0-3.658-.144-7.324.043-10.972.165-3.214,1.868-6.129,6.075-6.511.934-.085,1.868-.12,2.798-.205.735-.067.787.281.769.855-.016.526.063.943-.74.898-1.396-.078-2.796-.034-4.138.485-1.747.675-2.631,1.996-2.98,3.768-.183.928-.105,1.858-.107,2.786-.008,6.513-.004,13.026-.005,19.539,0,.891-.749,1.377-1.529.988-.338-.169-.173-.492-.173-.739-.011-3.631-.008-7.261-.008-10.892h-.005Z"/><path class="cls-3" d="m16.513,146.699c0,1.661.003,3.322,0,4.983-.003,1.44-.685,2.172-2.094,2.186-1.749.018-3.498.011-5.247-.017-1.037-.017-1.757-.677-1.867-1.689-.062-.575-.065-1.159-.069-1.739-.021-2.988-.032-5.976-.05-8.965-.005-.842.702-1.629,1.52-1.763,1.898-.311,3.813-.205,5.706-.109,1.357.069,2.129.517,2.107,2.214-.022,1.633-.005,3.266-.005,4.9Z"/><path class="cls-3" d="m285.41,143.926c0,3.103.011,6.205-.003,9.308-.015,3.288-2.084,5.661-5.357,6.099-3.062.41-6.143.129-9.215.157-1.428.013-2.715-.451-3.914-1.215-1.069-.682-1.469-1.733-1.68-2.884-.18-.983-.148-1.986-.148-2.983.001-4.322-.056-8.644.007-12.965.04-2.756,2.329-5.498,5.646-5.603,4.604-.145,9.204-.026,13.804-.137.759-.018.905.206.896.915-.04,3.102-.017,6.206-.017,9.309h-.018Z"/><path class="cls-3" d="m41.326,153.873c-.943,0-1.887.014-2.83-.004-1.21-.023-1.805-.642-1.809-1.852-.002-.553-.003-1.107.008-1.66.024-1.15.224-1.546,1.303-1.594,2.205-.097,4.425-.26,6.623.088,1.094.174,1.372.575,1.398,1.674.012.498.005.996.002,1.494-.009,1.327-.507,1.82-1.863,1.852-.055.001-.111.001-.166.001-.888,0-1.776,0-2.664,0Z"/><path class="cls-3" d="m126.972,153.87c-.973,0-1.945-.009-2.918.003-.836.01-1.602-.644-1.634-1.465-.027-.691-.018-1.385.003-2.077.035-1.147.252-1.544,1.351-1.578,2.237-.069,4.484-.227,6.72.097.786.114,1.165.612,1.224,1.333.061.743.06,1.497.015,2.242-.053.899-.579,1.395-1.511,1.427-1.082.036-2.167.008-3.25.008,0,.004,0,.007,0,.011Z"/><path class="cls-3" d="m168.427,142.543c.056-.79-.241-1.758.684-2.419.462-.33.932-.578,1.513-.577,1.663.001,3.329-.047,4.989.02.574.023,1.266-.02,1.608.726.255.555-.029.93-.408,1.032-1.502.406-2.891,1.105-4.373,1.564-1.195.37-2.332.923-3.493,1.401-.342.141-.529.076-.522-.329.007-.442.002-.885.002-1.418Z"/><path class="cls-3" d="m228.648,159.5c-1.675.082-3.418-.007-5.163.062-1.192.047-2.206-.637-3.149-1.339-1.218-.906-1.854-2.085-1.828-3.63.035-2.131-.113-4.273.057-6.392.222-2.756,2.056-4.338,4.473-4.761.65-.114,1.452-.005,2.184-.006,4.166-.004,8.331.011,12.497-.016.618-.004.8.154.793.785-.034,3.184.02,6.369-.03,9.552-.031,1.966-.472,3.8-2.264,5.007-.711.479-1.506.707-2.338.726-1.721.039-3.443.012-5.232.012Z"/></g></svg>