<svg xmlns:cc="http://creativecommons.org/ns#" xmlns:dc="http://purl.org/dc/elements/1.1/" xmlns:rdf="http://www.w3.org/1999/02/22-rdf-syntax-ns#" xmlns:svg="http://www.w3.org/2000/svg" xmlns="http://www.w3.org/2000/svg" xmlns:xlink="http://www.w3.org/1999/xlink" id="svg2" x="0px" y="0px" viewBox="0 0 230 79.3" style="enable-background:new 0 0 230 79.3;" xml:space="preserve">
<style type="text/css">
	.st0{clip-path:url(#SVGID_2_);}
	.st1{fill:#811963;}
</style>
<g id="layer1" transform="translate(-231.27688,-477.67426)">
	<g id="g2993" transform="matrix(1.3053621,0,0,-1.3053621,233.2573,580.78239)">
		<g id="g2995">
			<g>
				<defs>
					<rect id="SVGID_1_" x="-26.2" y="10.4" width="224.5" height="76.7"></rect>
				</defs>
				<clipPath id="SVGID_2_">
					<use xlink:href="#SVGID_1_" style="overflow:visible;"></use>
				</clipPath>
				<g id="g2997" class="st0">
					<g id="g3003" transform="translate(162.891,58.847)">
						<path id="path3005" class="st1" d="M-39.3,5.1c3.9,0,7.1,3.2,7.1,7.1c0,3.9-3.2,7.1-7.1,7.1c-3.9,0-7.1-3.2-7.1-7.1        C-46.4,8.3-43.2,5.1-39.3,5.1z M-93.4,1.3c-0.3-0.8-2.6-7.3-8.2-14V16l-14.8-2.9v-52h14.8v16.1c4.3-6.4,6.4-16.1,6.4-16.1        h17.7c-1.8,7.3-9.4,20.7-9.4,20.7C-80-9.5-77-0.3-76.5,1.3C-76.5,1.3-93.4,1.3-93.4,1.3z M-54.6,1.8c-13.2-0.4-20-6.4-20-18.2        v-22.6h14.4v18.4c0,7.1,0.9,10.1,9.3,10.4V1.6C-52.2,1.9-54.6,1.8-54.6,1.8z M-141.1-4.4c-1.8,0.1-6,0.4-6,4.2        c0,4.6,6,4.6,8.3,4.6c4,0,9.1-1.2,12.8-2.3c0,0,2.1-0.7,3.8-1.5l0.2,0v12.5l-0.2,0.1c-4.3,1.5-9.4,3-18.8,3        c-16.1,0-21.9-9.4-21.9-17.5c0-4.6,2-15.6,20.5-16.8c1.6-0.1,5.7-0.3,5.7-4.2c0-3.2-3.4-5.1-9.1-5.1c-6.3,0-12.4,1.6-16.1,3.1        v-12.8c5.5-1.5,11.8-2.2,19.1-2.2c15.8,0,22.8,8.9,22.8,17.7C-119.9-11.8-127.9-5.3-141.1-4.4L-141.1-4.4z M-46.5-38.9h14.3        V1.2h-14.3V-38.9z M-5.2,13.4v-52.4H9.1V16C9.1,16-5.2,13.4-5.2,13.4z M-26.1,13.4l14.3,2.6v-54.9h-14.3L-26.1,13.4"></path>
					</g>
				</g>
			</g>
		</g>
	</g>
</g>
</svg>