<?xml version="1.0" encoding="UTF-8"?><svg id="Layer_1" xmlns="http://www.w3.org/2000/svg" viewBox="0 0 676.674 131.025"><defs><style>.cls-1{fill:#00c994;}.cls-2{fill:#fff;}.cls-3{fill:#fbfefd;}</style></defs><g><path class="cls-1" d="m58.877,131.025c-2.395-.873-4.953-.986-7.423-1.52-8.887-1.924-16.813-5.813-24.189-10.997-7.678-5.396-13.724-12.266-18.376-20.344-3.962-6.88-6.712-14.199-8.041-22.099-.915-5.445-1.013-10.898-.657-16.306.502-7.622,2.578-14.939,5.9-21.884,3.616-7.558,8.253-14.402,14.389-20.109,7.034-6.541,15.085-11.404,24.253-14.591C53.663.072,62.823-.34,72.023.201c6.317.371,12.434,2.068,18.435,4.447,5.656,2.243,10.789,5.176,15.542,8.795,6.231,4.744,11.365,10.539,15.688,17.101,3.727,5.656,5.884,11.927,7.831,18.292.588,1.922.747,3.962,1.722,5.797.567,1.068-.623,2.155-.215,3.291-.441.55-.341.954.328,1.203-.002,3.817.138,7.642-.044,11.451-.197,4.116-1.024,8.151-2.055,12.155-.916,3.557-2.438,6.868-3.786,10.245-1.923,4.816-4.776,9.15-8.053,13.119-4.569,5.533-9.813,10.356-15.852,14.369-6.707,4.456-14.063,7.272-21.76,9.227-1.916.487-4.006.723-6.028.996-.435-.002-.947-.285-1.209.334h-13.689Zm52.743-65.602c.128-25.856-20.302-44.536-42.851-45.608-30.011-1.427-47.911,21.392-48.848,42.946-1.253,28.816,21.097,47.527,43.829,48.512,26.935,1.166,48.227-20.789,47.87-45.85ZM60.523,9.943c.077,1.563-.431,3.64.385,4.623.967,1.165,3.141.247,4.782.412.066.007.134,0,.201,0,4.981,0,5.012,0,4.964-4.975-.016-1.652.737-3.785-.324-4.83-1.056-1.04-3.192-.325-4.847-.302-1.643.023-3.817-.781-4.782.383-.815.982-.302,3.06-.378,4.688Zm.073,110.958c.211,1.4-.793,3.68.404,4.673,1.01.837,3.206.252,4.877.296.067.002.134,0,.201,0,4.794,0,4.823,0,4.778-4.753-.016-1.72.748-3.94-.331-5.028-1.08-1.09-3.309-.324-5.03-.34-4.899-.046-4.899-.016-4.899,5.152Zm44.4-87.375c2.164-2.2,4.196-4.335,6.313-6.383.763-.738.765-1.169,0-1.907-1.729-1.67-3.337-3.464-5.037-5.165-.715-.716-1.46-1.043-2.368-.072-1.692,1.809-3.451,3.561-5.263,5.251-.808.754-.695,1.192.038,1.903,2.111,2.048,4.147,4.174,6.315,6.374Zm.004,78.332c2.196-2.233,4.289-4.398,6.431-6.514.6-.593.693-.985.036-1.614-1.838-1.758-3.642-3.552-5.403-5.386-.789-.822-1.382-.796-2.157.01-1.716,1.784-3.456,3.55-5.265,5.239-.805.751-.696,1.19.039,1.901,2.114,2.045,4.151,4.169,6.319,6.364ZM26.461,33.366c.213-.179.377-.298.52-.439,2.048-2.027,4.084-4.065,6.144-6.08.658-.644.216-1.033-.233-1.479-1.808-1.793-3.619-3.584-5.402-5.401-.69-.703-1.209-.81-1.975-.006-1.752,1.839-3.585,3.603-5.438,5.342-.698.655-.728,1.083-.016,1.761,1.941,1.848,3.81,3.771,5.711,5.661.224.223.463.43.69.64Zm-16.679,37.063c1.568,0,2.838-.046,4.104.015.996.048,1.452-.231,1.42-1.327-.066-2.263-.024-4.529-.011-6.793.009-1.503-.538-2.302-2.221-2.066-.982.137-2.002-.015-3.001.034-1.65.082-3.79-.718-4.816.315-1.026,1.032-.202,3.158-.233,4.802-.03,1.581-.693,3.617.262,4.637,1.064,1.137,3.163.161,4.497.384Zm16.431,27.306c-.037.019-.245.069-.375.197-2.04,2.019-4.064,4.055-6.106,6.072-.61.603-.093.937.27,1.301,1.838,1.844,3.695,3.669,5.521,5.524.647.658,1.201.684,1.86.015,1.826-1.856,3.659-3.705,5.536-5.51.627-.602.644-.997.009-1.607-1.877-1.804-3.697-3.666-5.542-5.503-.282-.28-.547-.604-1.173-.49Zm94.996-37.452c-1.341,0-2.683.04-4.021-.014-.865-.035-1.263.256-1.133,1.14.374,2.528.159,5.072.177,7.608.007.972.207,1.462,1.325,1.433,2.545-.067,5.094-.053,7.641-.005.957.018,1.297-.307,1.274-1.269-.053-2.205-.027-4.413-.012-6.62.012-1.654-.556-2.588-2.441-2.298-.917.141-1.873.024-2.812.024Z"/><path class="cls-3" d="m72.566,131.025c.262-.619.775-.337,1.209-.334,0,.111-.001.223-.002.334h-1.208Z"/><path class="cls-3" d="m131.354,59.128c-.67-.249-.769-.653-.328-1.203.834.205.95.604.328,1.203Z"/><path class="cls-2" d="m111.62,65.423c.357,25.061-20.936,47.016-47.87,45.85-22.732-.984-45.082-19.696-43.829-48.512.937-21.553,18.837-44.373,48.848-42.946,22.548,1.072,42.978,19.752,42.851,45.608Zm-9.596-9.097c-1.391-5.835-3.778-11.177-8.123-15.435-2.924-2.866-5.576-5.992-9.412-7.901-8.321-4.141-16.842-5.93-26.14-4.088-5.1,1.01-9.683,2.983-13.894,5.798-3.875,2.591-7.22,5.886-9.761,9.823-2.821,4.372-4.696,9.09-5.76,14.281-1.308,6.381-.579,12.47,1.321,18.465,2.52,7.952,7.672,14.154,14.32,19.011,4.013,2.932,8.704,4.594,13.584,5.77,6.742,1.624,13.238.858,19.668-1.364,6.5-2.245,11.969-5.956,16.471-11.184,5.491-6.376,8.317-13.76,8.853-22.07.231-3.587-.154-7.146-.804-10.677-.108-.143-.216-.286-.324-.429Z"/><path class="cls-2" d="m60.523,9.943c.076-1.628-.436-3.706.378-4.688.965-1.164,3.139-.36,4.782-.383,1.655-.023,3.791-.738,4.847.302,1.061,1.045.308,3.178.324,4.83.049,4.975.018,4.975-4.964,4.975-.067,0-.135.006-.201,0-1.64-.165-3.815.753-4.782-.412-.816-.983-.308-3.059-.385-4.623Z"/><path class="cls-2" d="m60.595,120.901c0-5.169,0-5.198,4.899-5.152,1.722.016,3.95-.75,5.03.34,1.079,1.088.314,3.308.331,5.028.045,4.753.016,4.753-4.778,4.753-.067,0-.134.002-.201,0-1.671-.044-3.867.542-4.877-.296-1.197-.993-.193-3.273-.404-4.673Z"/><path class="cls-2" d="m104.995,33.527c-2.168-2.2-4.203-4.326-6.315-6.374-.733-.711-.846-1.149-.038-1.903,1.811-1.69,3.57-3.442,5.263-5.251.908-.971,1.653-.644,2.368.072,1.7,1.701,3.308,3.495,5.037,5.165.764.738.762,1.169,0,1.907-2.117,2.048-4.15,4.183-6.313,6.383Z"/><path class="cls-2" d="m105,111.859c-2.168-2.195-4.205-4.319-6.319-6.364-.735-.711-.844-1.15-.039-1.901,1.809-1.689,3.549-3.455,5.265-5.239.775-.806,1.368-.832,2.157-.01,1.761,1.834,3.565,3.629,5.403,5.386.657.629.564,1.021-.036,1.614-2.142,2.116-4.235,4.281-6.431,6.514Z"/><path class="cls-2" d="m26.461,33.366c-.227-.209-.466-.417-.69-.64-1.9-1.891-3.77-3.813-5.711-5.661-.713-.679-.682-1.106.016-1.761,1.853-1.739,3.687-3.503,5.438-5.342.766-.804,1.285-.696,1.975.006,1.784,1.817,3.595,3.607,5.402,5.401.449.446.892.835.233,1.479-2.06,2.015-4.096,4.053-6.144,6.08-.142.141-.306.26-.52.439Z"/><path class="cls-2" d="m9.782,70.429c-1.334-.223-3.433.754-4.497-.384-.955-1.02-.291-3.056-.262-4.637.031-1.644-.792-3.769.233-4.802,1.026-1.033,3.167-.233,4.816-.315.999-.05,2.018.103,3.001-.034,1.683-.235,2.229.563,2.221,2.066-.013,2.265-.055,4.531.011,6.793.032,1.096-.423,1.375-1.42,1.327-1.266-.061-2.536-.015-4.104-.015Z"/><path class="cls-2" d="m26.213,97.735c.626-.115.892.209,1.173.49,1.845,1.837,3.665,3.7,5.542,5.503.635.61.618,1.005-.009,1.607-1.877,1.804-3.71,3.654-5.536,5.51-.659.67-1.213.643-1.86-.015-1.826-1.855-3.683-3.68-5.521-5.524-.363-.364-.88-.698-.27-1.301,2.042-2.018,4.066-4.053,6.106-6.072.13-.129.338-.179.375-.197Z"/><path class="cls-2" d="m121.209,60.283c.938,0,1.895.117,2.812-.024,1.884-.291,2.452.643,2.441,2.298-.016,2.207-.041,4.414.012,6.62.023.962-.318,1.287-1.274,1.269-2.546-.048-5.095-.062-7.641.005-1.119.03-1.318-.461-1.325-1.433-.018-2.536.196-5.08-.177-7.608-.131-.884.267-1.174,1.133-1.14,1.338.054,2.681.014,4.021.014Z"/><path class="cls-1" d="m102.349,56.755c.649,3.53,1.035,7.09.804,10.677-.536,8.31-3.362,15.695-8.853,22.07-4.502,5.228-9.971,8.939-16.471,11.184-6.431,2.221-12.926,2.988-19.668,1.364-4.88-1.176-9.571-2.837-13.584-5.77-6.648-4.857-11.799-11.06-14.32-19.011-1.9-5.995-2.63-12.083-1.321-18.465,1.064-5.191,2.939-9.909,5.76-14.281,2.541-3.938,5.886-7.233,9.761-9.823,4.211-2.815,8.794-4.788,13.894-5.798,9.298-1.842,17.819-.053,26.14,4.088,3.836,1.909,6.488,5.035,9.412,7.901,4.345,4.258,6.732,9.6,8.123,15.435-.057.267.096.377.324.429Zm-35,23.093c2.997,1.81,5.94,3.06,9.518,2.162,3.508-.88,6.343-2.536,7.945-5.905,2.404-5.058.921-12.412-3.245-16.636-4.025-4.081-8.267-7.921-12.536-11.743-3.797-3.399-2.889-3.219-6.62.061-2.842,2.498-5.617,5.072-8.43,7.604-3.444,3.1-6.604,6.564-7.884,11.024-1.788,6.23.051,12.739,7.155,15.37,2.399.888,4.958,1.243,7.473-.115,1.116-.603,1.913-1.752,3.282-1.897.051,1.393-.614,2.615-.964,3.909-.72,2.656-.752,2.647,2.101,2.647.939,0,1.878-.022,2.816.005.989.029,1.312-.249.94-1.299-.602-1.699-1.043-3.454-1.551-5.185Z"/><path class="cls-3" d="m102.349,56.755c-.228-.052-.381-.162-.324-.429.108.143.216.286.324.429Z"/><path class="cls-2" d="m67.349,79.848c.509,1.731.95,3.487,1.551,5.185.372,1.051.049,1.328-.94,1.299-.938-.027-1.877-.005-2.816-.005-2.853,0-2.821.009-2.101-2.647.351-1.294,1.016-2.516.964-3.909-1.37.145-2.167,1.295-3.282,1.897-2.514,1.358-5.074,1.004-7.473.115-7.104-2.631-8.943-9.14-7.155-15.37,1.28-4.46,4.439-7.924,7.884-11.024,2.813-2.532,5.588-5.106,8.43-7.604,3.731-3.28,2.824-3.46,6.62-.061,4.269,3.822,8.511,7.662,12.536,11.743,4.166,4.224,5.648,11.578,3.245,16.636-1.601,3.369-4.437,5.025-7.945,5.905-3.578.897-6.521-.353-9.518-2.162Z"/></g><path class="cls-1" d="m177.772,58.443h-10.898V16.115h-13.957V7.045h38.812v9.07h-13.957v42.328Z"/><path class="cls-1" d="m246.292,32.674c0,8.508-2.109,15.047-6.328,19.617s-10.266,6.855-18.141,6.855-13.922-2.285-18.141-6.855-6.328-11.132-6.328-19.688,2.115-15.087,6.346-19.6c4.23-4.512,10.295-6.768,18.193-6.768s13.939,2.273,18.123,6.82c4.184,4.547,6.275,11.086,6.275,19.617Zm-37.512,0c0,5.743,1.09,10.067,3.27,12.973,2.18,2.906,5.437,4.359,9.773,4.359,8.695,0,13.043-5.777,13.043-17.332s-4.324-17.367-12.973-17.367c-4.336,0-7.606,1.459-9.809,4.377-2.203,2.918-3.305,7.248-3.305,12.99Z"/><path class="cls-1" d="m292.452,23.076c0,5.532-1.729,9.762-5.186,12.691-3.458,2.93-8.373,4.395-14.748,4.395h-4.676v18.281h-10.898V7.045h16.418c6.234,0,10.974,1.342,14.221,4.025,3.246,2.684,4.869,6.686,4.869,12.006Zm-24.609,8.156h3.586c3.352,0,5.859-.662,7.523-1.986,1.664-1.324,2.496-3.252,2.496-5.783,0-2.554-.698-4.441-2.092-5.66-1.395-1.218-3.581-1.828-6.557-1.828h-4.957v15.258Z"/><path class="cls-1" d="m362.202,58.443h-12.375l-13.465-21.656-4.605,3.305v18.352h-10.898V7.045h10.898v23.52l4.289-6.047,13.922-17.473h12.094l-17.93,22.746,18.07,28.652Z"/><path class="cls-1" d="m368.671,58.443V7.045h10.898v51.398h-10.898Z"/><path class="cls-1" d="m442.569,58.443h-12.41l-6.961-27c-.258-.961-.698-2.947-1.318-5.959-.621-3.011-.979-5.033-1.072-6.064-.141,1.266-.492,3.299-1.055,6.1-.562,2.801-.997,4.799-1.301,5.994l-6.926,26.93h-12.375l-13.113-51.398h10.723l6.574,28.055c1.148,5.18,1.98,9.668,2.496,13.465.141-1.336.462-3.404.967-6.205.504-2.8.979-4.975,1.424-6.521l7.488-28.793h10.301l7.488,28.793c.328,1.289.738,3.258,1.23,5.906.492,2.649.867,4.922,1.125,6.82.234-1.828.609-4.107,1.125-6.838.515-2.73.984-4.939,1.406-6.627l6.539-28.055h10.723l-13.078,51.398Z"/><path class="cls-1" d="m462.116,58.443V7.045h10.898v51.398h-10.898Z"/><path class="cls-2" d="m200.589,97.894c0,8.461-2.408,14.941-7.225,19.441s-11.772,6.75-20.865,6.75h-14.555v-51.398h16.137c8.39,0,14.906,2.215,19.547,6.645s6.961,10.617,6.961,18.562Zm-11.32.281c0-11.039-4.875-16.559-14.625-16.559h-5.801v33.469h4.676c10.5,0,15.75-5.637,15.75-16.91Z"/><path class="cls-2" d="m240.842,124.085h-29.602v-51.398h29.602v8.93h-18.703v11.285h17.402v8.93h-17.402v13.254h18.703v9Z"/><path class="cls-2" d="m281.905,109.812c0,4.641-1.67,8.297-5.01,10.969s-7.986,4.008-13.939,4.008c-5.484,0-10.336-1.031-14.555-3.094v-10.125c3.468,1.547,6.404,2.637,8.807,3.27,2.402.633,4.6.949,6.592.949,2.391,0,4.224-.457,5.502-1.371,1.277-.914,1.916-2.273,1.916-4.078,0-1.007-.281-1.904-.844-2.689-.562-.785-1.389-1.541-2.479-2.268-1.09-.726-3.311-1.886-6.662-3.48-3.141-1.477-5.497-2.895-7.066-4.254-1.57-1.359-2.825-2.941-3.762-4.746-.938-1.805-1.406-3.914-1.406-6.328,0-4.547,1.541-8.121,4.623-10.723,3.082-2.602,7.342-3.902,12.779-3.902,2.672,0,5.221.316,7.646.949s4.962,1.524,7.611,2.672l-3.516,8.473c-2.742-1.125-5.01-1.91-6.803-2.355-1.793-.445-3.557-.668-5.291-.668-2.062,0-3.645.48-4.746,1.441-1.102.961-1.652,2.215-1.652,3.762,0,.961.223,1.799.668,2.514.445.715,1.154,1.406,2.127,2.074.972.668,3.275,1.869,6.908,3.604,4.804,2.297,8.098,4.6,9.879,6.908,1.781,2.309,2.672,5.139,2.672,8.49Z"/><path class="cls-2" d="m311.049,124.085h-10.898v-42.328h-13.957v-9.07h38.812v9.07h-13.957v42.328Z"/><path class="cls-2" d="m332.917,124.085v-51.398h10.898v51.398h-10.898Z"/><path class="cls-2" d="m402.35,124.085h-13.852l-22.359-38.883h-.316c.445,6.868.668,11.766.668,14.695v24.188h-9.738v-51.398h13.746l22.324,38.496h.246c-.352-6.68-.527-11.402-.527-14.168v-24.328h9.809v51.398Z"/><path class="cls-2" d="m446.753,124.085l-3.727-12.234h-18.738l-3.727,12.234h-11.742l18.141-51.609h13.324l18.211,51.609h-11.742Zm-6.328-21.375c-3.445-11.086-5.385-17.355-5.818-18.809-.434-1.453-.744-2.602-.932-3.445-.773,3-2.988,10.418-6.645,22.254h13.395Z"/><path class="cls-2" d="m484.792,124.085h-10.898v-42.328h-13.957v-9.07h38.812v9.07h-13.957v42.328Z"/><path class="cls-2" d="m506.659,124.085v-51.398h10.898v51.398h-10.898Z"/><path class="cls-2" d="m577.147,98.315c0,8.508-2.109,15.047-6.328,19.617s-10.266,6.855-18.141,6.855-13.921-2.285-18.14-6.855-6.328-11.132-6.328-19.688,2.115-15.087,6.346-19.6c4.23-4.512,10.295-6.768,18.193-6.768s13.939,2.273,18.123,6.82c4.184,4.547,6.275,11.086,6.275,19.617Zm-37.511,0c0,5.743,1.09,10.067,3.27,12.973,2.18,2.906,5.437,4.359,9.773,4.359,8.695,0,13.043-5.777,13.043-17.332s-4.324-17.367-12.973-17.367c-4.336,0-7.605,1.459-9.808,4.377-2.203,2.918-3.305,7.248-3.305,12.99Z"/><path class="cls-2" d="m633.397,124.085h-13.852l-22.359-38.883h-.316c.445,6.868.668,11.766.668,14.695v24.188h-9.738v-51.398h13.746l22.324,38.496h.246c-.352-6.68-.527-11.402-.527-14.168v-24.328h9.809v51.398Z"/><path class="cls-2" d="m676.674,109.812c0,4.641-1.67,8.297-5.01,10.969s-7.986,4.008-13.939,4.008c-5.484,0-10.336-1.031-14.555-3.094v-10.125c3.469,1.547,6.404,2.637,8.807,3.27s4.6.949,6.592.949c2.391,0,4.225-.457,5.502-1.371s1.916-2.273,1.916-4.078c0-1.007-.281-1.904-.844-2.689-.562-.785-1.389-1.541-2.479-2.268-1.09-.726-3.311-1.886-6.662-3.48-3.141-1.477-5.496-2.895-7.066-4.254-1.57-1.359-2.824-2.941-3.762-4.746-.938-1.805-1.406-3.914-1.406-6.328,0-4.547,1.541-8.121,4.623-10.723s7.342-3.902,12.779-3.902c2.672,0,5.221.316,7.646.949s4.963,1.524,7.611,2.672l-3.516,8.473c-2.742-1.125-5.01-1.91-6.803-2.355-1.793-.445-3.557-.668-5.291-.668-2.062,0-3.645.48-4.746,1.441-1.102.961-1.652,2.215-1.652,3.762,0,.961.223,1.799.668,2.514.445.715,1.154,1.406,2.127,2.074s3.275,1.869,6.908,3.604c4.805,2.297,8.098,4.6,9.879,6.908,1.781,2.309,2.672,5.139,2.672,8.49Z"/></svg>