<svg xmlns="http://www.w3.org/2000/svg" xmlns:xlink="http://www.w3.org/1999/xlink" id="Layer_1" x="0px" y="0px" viewBox="0 0 230.5 79.3" style="enable-background:new 0 0 230.5 79.3;" xml:space="preserve">
<style type="text/css">
	.st0{fill:#00579F;}
	.st1{fill:#FAA61A;}
</style>
<title>visa-col</title>
<g id="g4158">
	<polygon id="polygon9" class="st0" points="99.4,77.1 81.1,77.1 92.6,3.2 110.9,3.2  "></polygon>
	<path id="path11" class="st0" d="M165.8,5c-5.2-2.1-10.8-3.2-16.4-3.2c-18.1,0-30.8,10.1-30.9,24.4c-0.1,10.6,9.1,16.5,16.1,20.1   c7,3.6,9.5,6,9.5,9.2c0,4.9-5.7,7.2-11,7.2c-6,0.2-11.9-1.2-17.2-3.9l-2.5-1.2l-2.6,16.6c6.5,2.6,13.4,4,20.4,3.9   c19.2,0,31.6-9.9,31.9-25.2c0-8.4-4.8-14.9-15.4-20.1c-6.4-3.4-10.3-5.7-10.3-9.1s3.3-6.3,10.5-6.3c4.7-0.1,9.4,0.9,13.6,2.9   l1.7,0.8L165.8,5z"></path>
	<path id="path13" class="st0" d="M190.2,50.9l7.3-20.7c0,0.1,1.5-4.3,2.4-7.1l1.3,6.3c0,0,3.5,17.7,4.1,21.4H190.2z M212.8,3.2   h-14.2c-4.2-0.5-8.2,2.1-9.6,6.1l-27.2,67.7h19.2l3.8-11.2h23.5c0.5,2.6,2.2,11.1,2.2,11.1h16.9L212.8,3.2L212.8,3.2z"></path>
	<path id="path15" class="st0" d="M65.8,3.2L47.9,53.6l-2-10.2c-4.3-13.1-13.4-24.1-25.3-31L37.1,77h19.4L85.2,3.2H65.8z"></path>
	<path id="path17" class="st1" d="M31.3,3.2H1.8L1.5,4.7c23,6.1,38.2,20.9,44.4,38.6L39.6,9.4C38.8,5.5,35.2,2.8,31.3,3.2z"></path>
</g>
</svg>